<?xml version="1.0" standalone="no"?><!DOCTYPE svg PUBLIC "-//W3C//DTD SVG 1.1//EN" "http://www.w3.org/Graphics/SVG/1.1/DTD/svg11.dtd"><svg t="1562049859436" class="icon" viewBox="0 0 1024 1024" version="1.1" xmlns="http://www.w3.org/2000/svg" p-id="2134" width="48" height="48" xmlns:xlink="http://www.w3.org/1999/xlink"><defs><style type="text/css"></style></defs><path d="M807.8 38.8 36.8 809.8l179.6 179.6 771-771L807.8 38.8zM158.8 851.6l-70-70 15.4-15.4 70 70L158.8 851.6zM227.4 783l-70-70 15.4-15.4 70 70L227.4 783zM295.8 714.6l-70-70 15.4-15.4 70 70L295.8 714.6zM364.4 646l-70-70 15.4-15.4 70 70L364.4 646zM432.8 577.6l-70-70 15.4-15.4 70 70L432.8 577.6zM501.4 509l-70-70 15.4-15.4 70 70L501.4 509zM570 440.6l-70-70 15.4-15.4 70 70L570 440.6zM638.4 372l-70-70 15.4-15.4 70 70L638.4 372zM707 303.4l-70-70 15.4-15.4 70 70L707 303.4zM775.4 235l-70-70 15.4-15.4 70 70L775.4 235zM774 96.4l15.4-15.4 70 70-15.4 15.4L774 96.4zM845.4 671.8 711 537.4 536 712.4 670.4 846.8 898 899.4ZM213.96432 40.52308l272.9406 272.9406-174.93654 174.93654-272.9406-272.9406 174.93654-174.93654Z" p-id="2135"></path></svg>